<svg xmlns="http://www.w3.org/2000/svg" viewBox="0 0 1200.0 1575.0" width="1200" height="1575" fill="none" stroke="currentColor" stroke-linecap="round" stroke-linejoin="round" role="img">
<path id="case-section-g0-vis" d="M670 245L682 200 M734 214L682 200 M734 215L734 215L734 214 M635 235L670 245 M635 235L648 188 M662 177L648 188 M739 198L662 177 M734 214L739 198 M635 235L635 235 M635 235L647 188 M662 177L647 188 M739 198L662 177 M739 198L739 198 M647 188L647 188L647 189 M647 189L647 189L647 188L648 188 M484 941L484 941 M422 1170L484 941 M387 1160L448 931 M448 931L484 941 M448 932L484 941 M448 932L448 931 M387 1161L422 1170 M387 1161L448 932 M387 1160L387 1161 M714 83L714 83 M698 142L714 83 M678 74L714 83 M678 73L678 74 M678 73L714 83 M750 156L698 142 M746 172L750 156 M746 172L669 152 M662 135L669 152 M662 135L678 74 M750 156L750 156 M662 135L678 73 M662 135L662 135 M662 135L662 135 M734 215L682 201 M750 156L698 142" stroke-width="1.4" vector-effect="non-scaling-stroke"/>
<path id="case-section-g1-vis" d="M603 1178L603 1178 M593 1216L603 1178 M422 1170L431 1139 M431 1139L570 1177 M570 1177L572 1170 M572 1170L603 1178 M572 1170L572 1170 M572 1170L603 1178 M422 1170L593 1216 M422 1170L431 1139 M431 1139L570 1177 M570 1177L572 1170 M422 1170L422 1170 M431 1139L431 1139 M570 1177L570 1177 M884 129L884 129 M865 200L884 129 M714 83L884 129 M714 83L714 83 M714 83L884 129 M865 200L834 192 M834 192L845 151 M705 114L845 151 M705 114L714 83 M834 192L834 192L834 191 M834 191L834 191L834 192 M834 192L834 192 M834 192L845 151 M705 114L714 83 M705 114L705 114 M856 233L856 233L856 234 M605 1171L856 234 M856 234L825 225 M856 233L825 225 M825 225L825 225L825 226 M825 226L825 226L825 225 M574 1163L605 1171 M574 1163L602 1057 M602 1057L623 1062 M623 1062L626 1050 M606 1045L626 1050 M606 1045L825 225 M574 1163L574 1163 M574 1163L602 1057 M602 1057L622 1062 M622 1062L626 1050 M606 1045L619 995 M619 995L619 995 M619 995L619 995 M619 995L623 980 M623 980L623 980 M623 980L627 964 M627 964L627 964 M627 964L627 964 M627 964L631 949 M631 949L631 949 M631 949L635 933 M635 933L635 934 M635 934L635 933 M635 934L639 918 M639 918L639 918 M639 918L644 903 M644 903L644 903 M644 903L644 903 M644 903L648 887 M648 887L648 887 M648 887L652 872 M652 872L652 872 M652 872L652 872 M652 872L656 857 M656 857L656 857 M656 857L660 841 M660 841L660 841 M660 841L660 841 M660 841L664 826 M664 826L664 826 M664 826L761 463 M761 463L761 463 M761 463L761 463 M761 463L766 447 M766 447L766 447 M766 447L770 432 M770 432L770 432 M770 432L770 432 M770 432L774 417 M774 417L774 417 M774 417L778 401 M778 401L778 401 M778 401L778 401 M778 401L782 386 M782 386L782 386 M782 386L786 371 M786 371L786 371 M786 371L786 371 M786 371L790 355 M790 355L790 355 M790 355L794 340 M794 340L794 340 M794 340L794 340 M794 340L799 324 M799 324L799 324 M799 324L803 309 M803 309L803 309 M803 309L803 309 M803 309L807 294 M807 294L807 294 M807 294L825 225 M606 1045L606 1045 M602 1057L602 1057 M622 1062L623 1062" stroke-width="1.4" vector-effect="non-scaling-stroke"/>
<path id="case-section-g2-vis" d="M1024 1448L1024 1476 M176 1476L1024 1476 M176 1476L176 1476 M176 1476L176 1448 M176 1448L1024 1448 M176 1448L176 1448 M176 1476L176 1448 M990 1429L990 1429 M990 1429L279 1429 M279 1429L279 1429 M279 1429L279 1429 M279 1429L990 1429 M279 1429L279 1429 M176 1429L176 1429 M1024 1429L176 1429 M1024 1429L1024 1429 M1024 1429L990 1429 M990 1429L990 1429 M990 1429L279 1429 M279 1429L279 1429 M279 1429L176 1429 M176 1448L176 1448 M176 1429L176 1448 M176 1429L176 1448 M1024 1448L1024 1429 M1024 1448L176 1448 M1125 1502L1084 1502 M1125 1502L1125 1502L1125 1501L1126 1501L1127 1501 M1127 1501L1127 1501 M1084 1482L1084 1502 M1084 1482L1086 1482L1087 1482L1089 1482L1090 1482L1092 1482L1093 1482L1095 1482L1096 1482 M1125 1482L1125 1502 M1125 1482L1084 1482 M1125 1482L1125 1482L1126 1482L1127 1482 M1127 1482L1127 1482 M1127 1501L1127 1482 M1127 1482L1096 1482 M73 1501L74 1501L74 1502L75 1502 M116 1502L75 1502 M73 1501L73 1482 M73 1482L74 1482L75 1482 M75 1482L75 1502 M116 1482L75 1482 M116 1482L116 1502 M104 1482L105 1482L107 1482L108 1482L110 1482L111 1482L113 1482L114 1482L116 1482 M104 1482L73 1482 M1071 1502L129 1502 M129 1482L129 1502 M129 1482L131 1482L132 1482L134 1482L135 1482L137 1482L138 1482L140 1482L141 1482 M1071 1482L129 1482 M1071 1482L1071 1502 M1059 1482L1060 1482L1062 1482L1063 1482L1065 1482L1066 1482L1068 1482L1069 1482L1071 1482 M1059 1482L141 1482 M1127 1482L1127 1501" stroke-width="1.4" vector-effect="non-scaling-stroke"/>
<path id="case-section-g3-vis" d="M74 1482L122 1482 M73 1482L74 1482 M73 1403L73 1482 M96 1403L73 1403 M96 1340L96 1403 M122 1294L122 1482 M74 1404L74 1482 M96 1404L74 1404 M96 1313L96 1404 M96 1313L100 1313 M100 1294L100 1313 M100 1294L122 1294 M74 1404L73 1403 M96 1403L96 1404 M96 1340L96 1313 M100 1294L100 1313 M122 1183L122 1219 M122 1247L122 1219 M100 1219L122 1219 M100 1201L100 1219 M96 1201L100 1201 M96 1201L96 1201 M96 1201L100 1201 M100 1183L100 1201 M100 1183L122 1183 M100 1183L100 1201 M100 1247L122 1247 M100 1229L100 1247 M96 1229L100 1229 M96 1228L96 1229 M100 1219L100 1247 M100 1201L100 1229 M96 1229L96 1201 M96 1228L96 1201 M310 1482L857 1482 M310 1482L310 1482 M857 992L857 1482 M857 992L857 992 M310 1404L310 1482 M310 1404L300 1404 M300 1058L300 1404 M310 1058L300 1058 M310 1029L310 1058 M122 1029L310 1029 M122 1029L122 1105 M100 1105L122 1105 M100 1084L100 1105 M100 1084L96 1084 M96 1058L96 1084 M96 1058L74 1058 M74 992L74 1058 M74 992L427 992 M427 992L382 1159 M382 1159L597 1217 M658 992L597 1217 M658 992L857 992 M310 1404L310 1482 M300 1058L300 1403 M310 1058L300 1058 M310 1029L310 1058 M96 1058L96 1084 M73 992L73 1058 M73 992L427 992 M382 1159L597 1217 M658 992L597 1217 M658 992L857 992 M658 992L658 992 M300 1403L300 1404 M300 1058L300 1058 M310 1058L310 1058 M122 1132L122 1105 M100 1105L100 1132 M100 1132L122 1132 M100 1084L100 1098 M100 1098L100 1132 M96 1084L96 1084 M74 1058L73 1058 M73 992L74 992 M427 992L427 992 M597 1217L597 1217" stroke-width="1.4" vector-effect="non-scaling-stroke"/>
<path id="case-section-g4-vis" d="M126 1477L126 1477 M126 1433L126 1477 M126 1433L126 1433 M126 1433L126 1477 M126 1477L327 1477 M126 1433L327 1433 M327 1433L327 1477 M327 1433L327 1433 M126 1433L327 1433" stroke-width="1.4" vector-effect="non-scaling-stroke"/>
</svg>