<svg xmlns="http://www.w3.org/2000/svg" viewBox="0 0 1200.0 320.6" width="1200" height="321" fill="none" stroke="currentColor" stroke-linecap="round" stroke-linejoin="round" role="img">
<path id="mobile-brl-wall-vis" d="M1127 73L73 73L73 238L76 240L80 242L84 244L88 246L92 248L1108 248L1112 246L1116 244L1120 242L1124 240L1127 238L1127 73 M73 238L73 238L73 73L73 238 M1127 73L73 73L1127 73 M73 73L1127 73L1127 238L1123 240L1119 242L1116 244L1112 246L1108 248L92 248L88 246L84 244L81 242L77 240L73 238L73 73 M92 248L1108 248L92 248 M429 149L429 216L429 149 M576 216L429 216L576 216 M429 216L429 149L576 149L576 216L429 216 M429 149L429 216L576 216L576 149L429 149 M576 149L429 149L576 149 M576 149L576 216L576 149 M615 216L780 216L615 216 M615 149L615 216L615 149 M780 216L615 216L615 149L780 149L780 216 M615 216L780 216L780 149L615 149L615 216 M780 149L615 149L780 149 M780 149L780 216L780 149 M1127 238L1127 238L1127 73L1127 238" stroke-width="1.4" vector-effect="non-scaling-stroke"/>
<path id="mobile-brl-dots-vis" d="M147 152L152 153L156 158L156 163L152 167L147 169L142 167L139 163L139 158L142 153L147 152L142 154L139 159L140 165L145 168L150 168L155 165L156 159L153 154L147 152 M147 152L153 154L156 159L155 165L150 168L145 168L140 165L139 159L142 154L147 152 M147 121L152 123L156 127L156 133L152 137L147 139L142 137L139 133L139 127L142 123L147 121L142 123L139 128L140 134L145 138L150 138L155 134L156 128L153 123L147 121 M147 121L153 123L156 128L155 134L150 138L145 138L140 134L139 128L142 123L147 121 M147 152L142 153L139 158L139 163L142 167L147 169L152 167L156 163L156 158L152 153L147 152 M147 121L142 123L139 127L139 133L142 137L147 139L152 137L156 133L156 127L152 123L147 121 M178 182L183 184L186 188L186 193L183 198L178 199L173 198L170 193L170 188L173 184L178 182L172 184L169 189L170 195L175 199L181 199L185 195L186 189L183 184L178 182 M178 182L183 184L186 189L185 195L181 199L175 199L170 195L169 189L172 184L178 182 M178 152L183 153L186 158L186 163L183 167L178 169L173 167L170 163L170 158L173 153L178 152L172 154L169 159L170 165L175 168L181 168L185 165L186 159L183 154L178 152 M178 152L183 154L186 159L185 165L181 168L175 168L170 165L169 159L172 154L178 152 M178 182L173 184L170 188L170 193L173 198L178 199L183 198L186 193L186 188L183 184L178 182 M178 152L173 153L170 158L170 163L173 167L178 169L183 167L186 163L186 158L183 153L178 152 M220 152L225 153L228 158L228 163L225 167L220 169L215 167L212 163L212 158L215 153L220 152L215 154L212 159L213 165L217 168L223 168L228 165L229 159L226 154L220 152 M220 152L226 154L229 159L228 165L223 168L217 168L213 165L212 159L215 154L220 152 M220 152L215 153L212 158L212 163L215 167L220 169L225 167L228 163L228 158L225 153L220 152 M251 182L256 184L259 188L259 193L256 198L251 199L246 198L242 193L242 188L246 184L251 182L245 184L242 189L243 195L248 199L254 199L258 195L259 189L256 184L251 182 M251 182L256 184L259 189L258 195L254 199L248 199L243 195L242 189L245 184L251 182 M251 152L256 153L259 158L259 163L256 167L251 169L246 167L242 163L242 158L246 153L251 152L245 154L242 159L243 165L248 168L254 168L258 165L259 159L256 154L251 152 M251 152L256 154L259 159L258 165L254 168L248 168L243 165L242 159L245 154L251 152 M251 121L256 123L259 127L259 133L256 137L251 139L246 137L242 133L242 127L246 123L251 121L245 123L242 128L243 134L248 138L254 138L258 134L259 128L256 123L251 121 M251 121L256 123L259 128L258 134L254 138L248 138L243 134L242 128L245 123L251 121 M251 182L246 184L242 188L242 193L246 198L251 199L256 198L259 193L259 188L256 184L251 182 M251 152L246 153L242 158L242 163L246 167L251 169L256 167L259 163L259 158L256 153L251 152 M251 121L246 123L242 127L242 133L246 137L251 139L256 137L259 133L259 127L256 123L251 121 M323 121L329 123L332 127L332 133L329 137L323 139L318 137L315 133L315 127L318 123L323 121L318 123L315 128L316 134L321 138L326 138L331 134L332 128L329 123L323 121 M323 121L329 123L332 128L331 134L326 138L321 138L316 134L315 128L318 123L323 121 M323 121L318 123L315 127L315 133L318 137L323 139L329 137L332 133L332 127L329 123L323 121 M366 182L371 184L374 188L374 193L371 198L366 199L361 198L358 193L358 188L361 184L366 182L361 184L358 189L359 195L363 199L369 199L373 195L374 189L371 184L366 182 M366 182L371 184L374 189L373 195L369 199L363 199L359 195L358 189L361 184L366 182 M366 182L361 184L358 188L358 193L361 198L366 199L371 198L374 193L374 188L371 184L366 182 M396 182L401 184L405 188L405 193L401 198L396 199L391 198L388 193L388 188L391 184L396 182L391 184L388 189L389 195L393 199L399 199L404 195L405 189L402 184L396 182 M396 182L402 184L405 189L404 195L399 199L393 199L389 195L388 189L391 184L396 182 M396 121L401 123L405 127L405 133L401 137L396 139L391 137L388 133L388 127L391 123L396 121L391 123L388 128L389 134L393 138L399 138L404 134L405 128L402 123L396 121 M396 121L402 123L405 128L404 134L399 138L393 138L389 134L388 128L391 123L396 121 M396 182L391 184L388 188L388 193L391 198L396 199L401 198L405 193L405 188L401 184L396 182 M396 121L391 123L388 127L388 133L391 137L396 139L401 137L405 133L405 127L401 123L396 121 M800 152L805 153L808 158L808 163L805 167L800 169L795 167L792 163L792 158L795 153L800 152L794 154L792 159L793 165L797 168L803 168L807 165L808 159L805 154L800 152 M800 152L805 154L808 159L807 165L803 168L797 168L793 165L792 159L794 154L800 152 M800 121L805 123L808 127L808 133L805 137L800 139L795 137L792 133L792 127L795 123L800 121L794 123L792 128L793 134L797 138L803 138L807 134L808 128L805 123L800 121 M800 121L805 123L808 128L807 134L803 138L797 138L793 134L792 128L794 123L800 121 M800 152L795 153L792 158L792 163L795 167L800 169L805 167L808 163L808 158L805 153L800 152 M800 121L795 123L792 127L792 133L795 137L800 139L805 137L808 133L808 127L805 123L800 121 M830 121L835 123L838 127L838 133L835 137L830 139L825 137L822 133L822 127L825 123L830 121L825 123L822 128L823 134L827 138L833 138L838 134L839 128L836 123L830 121 M830 121L836 123L839 128L838 134L833 138L827 138L823 134L822 128L825 123L830 121 M830 121L825 123L822 127L822 133L825 137L830 139L835 137L838 133L838 127L835 123L830 121 M873 121L878 123L881 127L881 133L878 137L873 139L868 137L865 133L865 127L868 123L873 121L867 123L864 128L865 134L870 138L876 138L880 134L881 128L878 123L873 121 M873 121L878 123L881 128L880 134L876 138L870 138L865 134L864 128L867 123L873 121 M873 121L868 123L865 127L865 133L868 137L873 139L878 137L881 133L881 127L878 123L873 121 M903 182L908 184L911 188L911 193L908 198L903 199L898 198L895 193L895 188L898 184L903 182L898 184L895 189L896 195L900 199L906 199L910 195L911 189L909 184L903 182 M903 182L909 184L911 189L910 195L906 199L900 199L896 195L895 189L898 184L903 182 M903 152L908 153L911 158L911 163L908 167L903 169L898 167L895 163L895 158L898 153L903 152L898 154L895 159L896 165L900 168L906 168L910 165L911 159L909 154L903 152 M903 152L909 154L911 159L910 165L906 168L900 168L896 165L895 159L898 154L903 152 M903 182L898 184L895 188L895 193L898 198L903 199L908 198L911 193L911 188L908 184L903 182 M903 152L898 153L895 158L895 163L898 167L903 169L908 167L911 163L911 158L908 153L903 152" stroke-width="1.4" vector-effect="non-scaling-stroke"/>
<path id="mobile-brl-dim" d="M202 160L202 130 M189 160L215 160 M189 130L215 130 M323 172L396 172 M323 186L323 159 M396 186L396 159" stroke-width="0.9" stroke-opacity="0.55" vector-effect="non-scaling-stroke"/>
<text x="181" y="142" fill="currentColor" stroke="none" font-size="27" text-anchor="end" font-family="ui-monospace,SFMono-Regular,Menlo,monospace" opacity="0.75">2.50</text>
<text x="360" y="169" fill="currentColor" stroke="none" font-size="27" text-anchor="middle" font-family="ui-monospace,SFMono-Regular,Menlo,monospace" opacity="0.75">6.00</text>
</svg>